<svg width="147" height="51" viewBox="0 0 147 51" fill="none" xmlns="http://www.w3.org/2000/svg">
<path fill-rule="evenodd" clip-rule="evenodd" d="M66.016 28.7866C66.016 20.0146 66.016 6.12657 66.016 6.12657H61.021C61.021 6.12657 61.021 20.0996 61.021 28.9396C61.021 37.0176 67.749 36.3546 67.749 36.3546V31.0796C67.749 31.0796 66.016 31.1486 66.016 28.7866ZM85.708 25.7126C85.708 28.9196 83.602 31.6136 80.506 31.6136C77.286 31.6136 75.594 29.1766 75.594 25.9696V14.9366H70.557V26.0116C70.557 32.5546 74.107 36.3606 78.979 36.3606C81.827 36.3606 83.768 35.3346 85.873 33.1966L86.203 36.0616H90.703V14.9366H85.708V25.7126ZM103.499 23.0616C100.899 22.8906 99.701 22.1206 99.701 20.7526C99.701 19.4266 101.022 18.6566 103.417 18.6566C105.357 18.6566 107.008 19.1276 108.453 20.5386L111.26 17.1176C108.907 14.9796 106.513 14.3376 103.334 14.3376C99.619 14.3376 94.747 16.0486 94.747 20.9236C94.747 25.7126 99.33 27.1666 103.169 27.4666C106.059 27.6376 107.214 28.2356 107.214 29.6896C107.214 31.2296 105.439 32.2556 103.54 32.2126C101.27 32.1706 97.967 30.9296 96.522 29.2626L94.045 32.9826C97.018 36.1896 100.238 36.7456 103.458 36.7456C109.278 36.7456 112.21 33.5386 112.21 29.8176C112.21 24.2156 107.339 23.3176 103.499 23.0616ZM115.429 36.0186H120.465V14.8506H115.429V36.0186ZM114.975 8.99256C114.975 13.0546 120.92 13.0546 120.92 8.99256C120.92 4.92956 114.975 4.92956 114.975 8.99256ZM140.611 14.8936L134.707 30.7586L128.763 14.8936H123.272L131.983 36.1046H137.432L146.102 14.8936H140.611ZM50.731 31.9706C47.374 31.9706 44.653 29.1486 44.653 25.6666C44.653 22.1846 47.374 19.3616 50.731 19.3616C52.396 19.3616 53.904 20.0576 55.002 21.1826L58.378 17.7116C56.419 15.6856 53.717 14.4336 50.731 14.4336C44.75 14.4336 39.9 19.4626 39.9 25.6666C39.9 31.8706 44.75 36.8996 50.731 36.8996C53.735 36.8996 56.452 35.6316 58.414 33.5836L54.93 30.2176C53.839 31.3016 52.362 31.9706 50.731 31.9706Z" fill="#414141"/>
<path d="M42.722 9.89488L40.984 8.08987C36.453 3.38687 30.429 0.796875 24.021 0.796875C17.614 0.796875 11.59 3.38687 7.05904 8.08987C-2.29296 17.7979 -2.29296 33.5949 7.05904 43.3029C11.59 48.0059 17.614 50.5959 24.021 50.5959C30.429 50.5959 36.453 48.0059 40.984 43.3029L42.722 41.4979L27.5 25.6959L42.722 9.89488ZM35.656 41.3839C32.337 44.0479 28.286 45.4909 24.021 45.4909C18.928 45.4909 14.14 43.4319 10.538 39.6939C3.10205 31.9759 3.10205 19.4169 10.538 11.6999C14.139 7.96087 18.928 5.90188 24.021 5.90188C28.286 5.90188 32.337 7.34488 35.656 10.0089L24.022 22.0859L13.848 11.5429C12.512 12.5559 11.325 13.7649 10.325 15.1309L20.544 25.6959L10.261 36.3789C11.246 37.7419 12.417 38.9509 13.734 39.9679L24.022 29.3069L35.656 41.3839Z" fill="url(#paint0_linear_1351_90)"/>
<defs>
<linearGradient id="paint0_linear_1351_90" x1="6.25304" y1="-30.5981" x2="50.784" y2="-24.5984" gradientUnits="userSpaceOnUse">
<stop stop-color="#D64896"/>
<stop offset="1" stop-color="#C456B1"/>
</linearGradient>
</defs>
</svg>
