<svg width="179" height="44" viewBox="0 0 179 44" fill="none" xmlns="http://www.w3.org/2000/svg">
<path d="M23.2286 44L19.2767 38.6492C18.1057 38.8851 16.964 39.003 15.8517 39.003C12.9536 39.003 10.2897 38.325 7.85996 36.9688C5.45953 35.6127 3.54211 33.726 2.1077 31.3085C0.702566 28.8616 0 26.1199 0 23.0834C0 20.0469 0.702566 17.3199 2.1077 14.9025C3.54211 12.4851 5.45953 10.5983 7.85996 9.24221C10.2897 7.8861 12.9536 7.20804 15.8517 7.20804C18.7497 7.20804 21.399 7.8861 23.7994 9.24221C26.2291 10.5983 28.1319 12.4851 29.5078 14.9025C30.9129 17.3199 31.6155 20.0469 31.6155 23.0834C31.6155 25.7367 31.0739 28.1688 29.9908 30.3799C28.9369 32.5615 27.4586 34.3745 25.5558 35.8191L26.5271 36.9941C28.8336 39.7845 26.8489 44 23.2286 44ZM7.68432 23.0834C7.68432 25.8251 8.41616 28.0214 9.87984 29.6724C11.3728 31.2938 13.3634 32.1045 15.8517 32.1045C18.3106 32.1045 20.272 31.2791 21.7356 29.6281C23.2286 27.9772 23.9751 25.7956 23.9751 23.0834C23.9751 20.3417 23.2286 18.1601 21.7356 16.5387C20.272 14.8878 18.3106 14.0623 15.8517 14.0623C13.3634 14.0623 11.3728 14.873 9.87984 16.4945C8.41616 18.1159 7.68432 20.3122 7.68432 23.0834Z" fill="white"/>
<path d="M60.0732 14.0181V38.6935H52.5645V35.3327C51.8034 36.4234 50.7642 37.3079 49.4469 37.9859C48.1588 38.6345 46.7244 38.9588 45.1437 38.9588C43.2701 38.9588 41.6162 38.5461 40.1818 37.7206C38.7474 36.8657 37.635 35.6422 36.8446 34.0502C36.0542 32.4583 35.659 30.5863 35.659 28.4342V14.0181H43.1238V27.4171C43.1238 29.068 43.5482 30.3504 44.3972 31.2643C45.2461 32.1782 46.3878 32.6352 47.8222 32.6352C49.2859 32.6352 50.4422 32.1782 51.2911 31.2643C52.14 30.3504 52.5645 29.068 52.5645 27.4171V14.0181H60.0732Z" fill="white"/>
<path d="M63.9737 26.3116C63.9737 23.7762 64.442 21.5504 65.3788 19.6342C66.3448 17.7179 67.6475 16.2439 69.2868 15.2121C70.9261 14.1802 72.7557 13.6643 74.7756 13.6643C76.5028 13.6643 78.0104 14.0181 79.2984 14.7256C80.6157 15.4332 81.6256 16.3618 82.3282 17.5116V14.0181H89.8369V38.6935H82.3282V35.2C81.5964 36.3497 80.5718 37.2784 79.2545 37.9859C77.9664 38.6935 76.4588 39.0472 74.7317 39.0472C72.7411 39.0472 70.9261 38.5313 69.2868 37.4995C67.6475 36.4382 66.3448 34.9494 65.3788 33.0332C64.442 31.0874 63.9737 28.8469 63.9737 26.3116ZM82.3282 26.3558C82.3282 24.469 81.8013 22.9802 80.7474 21.8894C79.7229 20.7987 78.4641 20.2533 76.9711 20.2533C75.4782 20.2533 74.2048 20.7987 73.1509 21.8894C72.1264 22.9508 71.6141 24.4248 71.6141 26.3116C71.6141 28.1983 72.1264 29.7018 73.1509 30.8221C74.2048 31.9129 75.4782 32.4583 76.9711 32.4583C78.4641 32.4583 79.7229 31.9129 80.7474 30.8221C81.8013 29.7313 82.3282 28.2425 82.3282 26.3558Z" fill="white"/>
<path d="M102.778 5.96985V38.6935H95.2691V5.96985H102.778Z" fill="white"/>
<path d="M115.728 14.0181V38.6935H108.219V14.0181H115.728Z" fill="white"/>
<path d="M128.678 14.0181V38.6935H121.169V14.0181H128.678Z" fill="white"/>
<path d="M141.145 32.4583H151.771V38.6935H132.758V32.6794L142.945 20.2533H132.846V14.0181H151.552V20.0322L141.145 32.4583Z" fill="white"/>
<path d="M179 25.9578C179 26.6653 178.956 27.4023 178.868 28.1688H161.875C161.992 29.7018 162.475 30.8811 163.324 31.7065C164.202 32.5025 165.271 32.9005 166.529 32.9005C168.403 32.9005 169.706 32.1045 170.437 30.5126H178.429C178.019 32.134 177.273 33.5933 176.19 34.8904C175.136 36.1876 173.804 37.2047 172.194 37.9417C170.584 38.6787 168.784 39.0472 166.793 39.0472C164.392 39.0472 162.256 38.5313 160.382 37.4995C158.509 36.4677 157.045 34.9936 155.991 33.0774C154.937 31.1611 154.41 28.9206 154.41 26.3558C154.41 23.791 154.922 21.5504 155.947 19.6342C157.001 17.7179 158.465 16.2439 160.338 15.2121C162.212 14.1802 164.363 13.6643 166.793 13.6643C169.164 13.6643 171.272 14.1655 173.116 15.1678C174.96 16.1702 176.395 17.6 177.419 19.4573C178.473 21.3146 179 23.4814 179 25.9578ZM171.316 23.9678C171.316 22.6707 170.877 21.6389 169.998 20.8724C169.12 20.1059 168.022 19.7226 166.705 19.7226C165.446 19.7226 164.378 20.0911 163.5 20.8281C162.651 21.5652 162.124 22.6117 161.919 23.9678H171.316Z" fill="white"/>
<g clip-path="url(#clip0_23_400)">
<path d="M116.742 4.77416L109.273 0.0775854C109.172 0.0188754 109.061 -0.00720823 108.95 0.00170875C108.839 0.0106257 108.732 0.0542602 108.638 0.12864C108.544 0.20302 108.466 0.305783 108.412 0.427574C108.358 0.549366 108.328 0.686318 108.327 0.825963V10.2151C108.326 10.3584 108.354 10.4996 108.41 10.6251C108.465 10.7506 108.545 10.856 108.642 10.9313C108.739 11.0065 108.85 11.049 108.963 11.0546C109.077 11.0603 109.191 11.0289 109.292 10.9634L116.742 6.26687C116.852 6.19721 116.945 6.09032 117.01 5.95816C117.075 5.82601 117.109 5.67378 117.109 5.51849C117.109 5.36321 117.075 5.21098 117.01 5.07882C116.945 4.94666 116.852 4.83978 116.742 4.77012V4.77416Z" fill="#FF7B7B"/>
</g>
<g clip-path="url(#clip1_23_400)">
<path d="M129.111 4.34907L122.031 0.0706772C121.935 0.0171948 121.83 -0.00656641 121.725 0.0015566C121.62 0.0096796 121.518 0.0494289 121.429 0.117186C121.34 0.184943 121.266 0.278556 121.215 0.389503C121.163 0.50045 121.135 0.625208 121.134 0.752419V9.30552C121.133 9.4361 121.16 9.56475 121.212 9.67904C121.265 9.79333 121.341 9.88939 121.432 9.95793C121.524 10.0265 121.63 10.0652 121.737 10.0703C121.845 10.0755 121.953 10.0469 122.049 9.98726L129.111 5.70887C129.216 5.64541 129.304 5.54804 129.365 5.42765C129.427 5.30726 129.459 5.16858 129.459 5.02713C129.459 4.88567 129.427 4.74699 129.365 4.6266C129.304 4.50621 129.216 4.40885 129.111 4.34538V4.34907Z" fill="#FF7B7B"/>
</g>
<defs>
<clipPath id="clip0_23_400">
<rect width="10.9776" height="13.2663" fill="white" transform="translate(106.131)"/>
</clipPath>
<clipPath id="clip1_23_400">
<rect width="10.9776" height="13.2663" fill="white" transform="translate(119.304)"/>
</clipPath>
</defs>
</svg>
