<svg width="148" height="58" viewBox="0 0 148 58" fill="none" xmlns="http://www.w3.org/2000/svg">
<path fill-rule="evenodd" clip-rule="evenodd" d="M66.0164 32.7826C66.0164 24.0111 66.0164 10.1234 66.0164 10.1234H61.0213C61.0213 10.1234 61.0213 24.0963 61.0213 32.9357C61.0213 41.0136 67.7488 40.3506 67.7488 40.3506V35.0765C67.7488 35.0765 66.0164 35.1453 66.0164 32.7826ZM85.7077 29.709C85.7077 32.9164 83.6024 35.6104 80.5061 35.6104C77.2859 35.6104 75.5935 33.1729 75.5935 29.9656V18.9325H70.5571V30.0084C70.5571 36.5511 74.1074 40.3574 78.9787 40.3574C81.8274 40.3574 83.7676 39.3311 85.8729 37.1927L86.2033 40.0579H90.7031V18.9325H85.7077V29.709ZM103.499 27.0578C100.899 26.8867 99.7014 26.1171 99.7014 24.7485C99.7014 23.4228 101.022 22.6532 103.417 22.6532C105.357 22.6532 107.008 23.1237 108.453 24.5348L111.26 21.1138C108.907 18.9756 106.513 18.334 103.334 18.334C99.6188 18.334 94.7473 20.0446 94.7473 24.9196C94.7473 29.7092 99.3297 31.163 103.169 31.4626C106.059 31.6337 107.214 32.2322 107.214 33.6864C107.214 35.2259 105.439 36.2522 103.54 36.2094C101.27 36.1666 97.9671 34.9265 96.5223 33.2586L94.0452 36.9792C97.0176 40.1863 100.238 40.7422 103.458 40.7422C109.278 40.7422 112.21 37.5351 112.21 33.8145C112.21 28.2124 107.339 27.3143 103.499 27.0578ZM115.429 40.0152H120.465V18.8471H115.429V40.0152ZM114.975 12.9885C114.975 17.0511 120.92 17.0511 120.92 12.9885C120.92 8.9259 114.975 8.9259 114.975 12.9885ZM140.611 18.8899L134.707 34.7554L128.763 18.8899H123.272L131.983 40.1007H137.432L146.102 18.8899H140.611ZM50.7314 35.9671C47.3743 35.9671 44.6529 33.1445 44.6529 29.6629C44.6529 26.181 47.3743 23.3584 50.7314 23.3584C52.3964 23.3584 53.9039 24.0539 55.0018 25.1786L58.3784 21.7081C56.4194 19.6822 53.7166 18.4297 50.7314 18.4297C44.7496 18.4297 39.9004 23.459 39.9004 29.6629C39.9004 35.8667 44.7496 40.896 50.7314 40.896C53.7346 40.896 56.4517 39.6278 58.4135 37.5804L54.9303 34.2144C53.8388 35.2978 52.3619 35.9671 50.7314 35.9671Z" fill="white"/>
<path d="M42.7224 13.8906L40.9838 12.086C36.453 7.38292 30.4288 4.79294 24.0214 4.79294C17.614 4.79294 11.59 7.38292 7.0594 12.086C-2.29324 21.7944 -2.29324 37.5908 7.0594 47.2988C11.59 52.0018 17.614 54.5918 24.0214 54.5918C30.4288 54.5918 36.453 52.0018 40.9838 47.2988L42.7224 45.4941L27.4996 29.6924L42.7224 13.8906ZM35.6561 45.3796C32.3368 48.0439 28.286 49.4868 24.0214 49.4868C18.928 49.4868 14.1396 47.4281 10.5379 43.6895C3.10248 35.9717 3.10248 23.4135 10.5379 15.6957C14.1394 11.9571 18.928 9.89812 24.0214 9.89812C28.286 9.89812 32.3368 11.3412 35.6561 14.0053L24.0216 26.0822L13.8479 15.5388C12.5125 16.5518 11.3249 17.7615 10.3247 19.1269L20.5438 29.6924L10.2608 40.375C11.2459 41.7375 12.4168 42.9472 13.7343 43.964L24.0218 33.3027L35.6561 45.3796Z" fill="url(#paint0_linear_23_412)"/>
<defs>
<linearGradient id="paint0_linear_23_412" x1="6.25255" y1="-26.602" x2="50.784" y2="-20.6023" gradientUnits="userSpaceOnUse">
<stop stop-color="#D64896"/>
<stop offset="1" stop-color="#C456B1"/>
</linearGradient>
</defs>
</svg>
