<svg width="45" height="45" viewBox="0 0 45 45" fill="none" xmlns="http://www.w3.org/2000/svg">
<path d="M0 22.5C0 10.0736 10.0736 0 22.5 0C34.9264 0 45 10.0736 45 22.5C45 34.9264 34.9264 45 22.5 45C10.0736 45 0 34.9264 0 22.5Z" fill="url(#paint0_linear_149_429)"/>
<path d="M19.7415 12.2304L29.1338 21.8656C29.2988 22.0349 29.3911 22.2618 29.3911 22.4982C29.3911 22.7345 29.2988 22.9615 29.1338 23.1307L19.7415 32.7696C19.6646 32.8485 19.5727 32.9113 19.4713 32.9541C19.3698 32.9969 19.2607 33.019 19.1506 33.019C19.0404 33.019 18.9314 32.9969 18.8299 32.9541C18.7284 32.9113 18.6365 32.8485 18.5597 32.7696C18.4016 32.6078 18.3131 32.3905 18.3131 32.1642C18.3131 31.938 18.4016 31.7207 18.5597 31.5589L27.392 22.4982L18.5597 13.4393C18.4022 13.2775 18.314 13.0606 18.314 12.8348C18.314 12.609 18.4022 12.3921 18.5597 12.2304C18.6365 12.1514 18.7284 12.0887 18.8299 12.0459C18.9314 12.0031 19.0404 11.981 19.1506 11.981C19.2607 11.981 19.3698 12.0031 19.4713 12.0459C19.5727 12.0887 19.6646 12.1514 19.7415 12.2304Z" fill="white" stroke="white"/>
<defs>
<linearGradient id="paint0_linear_149_429" x1="40" y1="8" x2="6" y2="36.5" gradientUnits="userSpaceOnUse">
<stop stop-color="#EA97CC"/>
<stop offset="1" stop-color="#F7BBBB"/>
</linearGradient>
</defs>
</svg>
