<svg width="36" height="36" viewBox="0 0 36 36" fill="none" xmlns="http://www.w3.org/2000/svg">
<g filter="url(#filter0_i_293_210)">
<path d="M29.0106 17.8606C29.7693 17.851 30.4001 18.46 30.3257 19.2152C30.0916 21.5896 29.1751 23.8567 27.6728 25.7353C25.8831 27.9731 23.373 29.5212 20.5699 30.1157C17.7669 30.7103 14.8444 30.3145 12.3004 28.9959C9.75645 27.6772 7.74841 25.5173 6.61845 22.8841C5.48848 20.2509 5.30649 17.3074 6.10349 14.555C6.9005 11.8027 8.62718 9.41185 10.9893 7.78988C13.3515 6.16791 16.203 5.41516 19.0579 5.6599C21.4546 5.86535 23.7291 6.76307 25.6114 8.22936C26.21 8.69567 26.2168 9.57247 25.6871 10.1158V10.1158C25.1574 10.659 24.2924 10.6607 23.6794 10.2136C22.2639 9.18115 20.586 8.54876 18.8232 8.39765C16.6017 8.20721 14.3828 8.79295 12.5447 10.0551C10.7066 11.3172 9.36303 13.1776 8.74285 15.3193C8.12267 17.461 8.26428 19.7515 9.14355 21.8005C10.0228 23.8495 11.5854 25.5302 13.5649 26.5563C15.5445 27.5824 17.8186 27.8904 19.9998 27.4278C22.1809 26.9651 24.1342 25.7605 25.5268 24.0191C26.6318 22.6374 27.3295 20.9856 27.5564 19.2484C27.6547 18.496 28.2519 17.8702 29.0106 17.8606V17.8606Z" fill="white" fill-opacity="0.9"/>
<path d="M13.2111 17.8348H28.0735C29.1679 17.8348 30.0551 18.722 30.0551 19.8165V19.8165C30.0551 20.3637 29.6115 20.8073 29.0643 20.8073H16.1836C14.5419 20.8073 13.2111 19.4765 13.2111 17.8348V17.8348Z" fill="white" fill-opacity="0.9"/>
<path d="M13.2111 34.6272V17.8348L14.6274 18.1726C15.5394 18.3901 16.0965 18.7901 16.0049 19.7231C16.0018 19.7548 16.0001 19.786 16.0001 19.8165L16.0005 35.4999C16.0005 35.4999 15.0754 35.112 14.5005 34.9999C13.9706 34.8965 13.2111 34.6272 13.2111 34.6272Z" fill="white" fill-opacity="0.9"/>
</g>
<rect x="0.5" y="0.5" width="35" height="35" rx="17.5" stroke="white" stroke-opacity="0.9"/>
<defs>
<filter id="filter0_i_293_210" x="5.61475" y="5.61462" width="24.7168" height="29.8853" filterUnits="userSpaceOnUse" color-interpolation-filters="sRGB">
<feFlood flood-opacity="0" result="BackgroundImageFix"/>
<feBlend mode="normal" in="SourceGraphic" in2="BackgroundImageFix" result="shape"/>
<feColorMatrix in="SourceAlpha" type="matrix" values="0 0 0 0 0 0 0 0 0 0 0 0 0 0 0 0 0 0 127 0" result="hardAlpha"/>
<feOffset dx="0.3" dy="0.3"/>
<feComposite in2="hardAlpha" operator="arithmetic" k2="-1" k3="1"/>
<feColorMatrix type="matrix" values="0 0 0 0 1 0 0 0 0 1 0 0 0 0 1 0 0 0 0.5 0"/>
<feBlend mode="normal" in2="shape" result="effect1_innerShadow_293_210"/>
</filter>
</defs>
</svg>
