<svg width="36" height="36" viewBox="0 0 36 36" fill="none" xmlns="http://www.w3.org/2000/svg">
<g filter="url(#filter0_i_10_126)">
<path d="M30.3843 17.8432C30.4206 20.7084 29.4623 23.4975 27.6727 25.7353C25.8831 27.9731 23.3729 29.5212 20.5698 30.1157C17.7668 30.7103 14.8443 30.3145 12.3004 28.9959C9.75639 27.6772 7.74835 25.5173 6.61838 22.8841C5.48841 20.2509 5.30643 17.3074 6.10343 14.555C6.90044 11.8027 8.62712 9.41185 10.9893 7.78988C13.3514 6.16791 16.2029 5.41516 19.0578 5.6599C21.9128 5.90464 24.5945 7.13171 26.6462 9.13205L24.728 11.0995C23.1315 9.54292 21.0447 8.58809 18.8232 8.39765C16.6016 8.20721 14.3828 8.79295 12.5447 10.0551C10.7066 11.3172 9.36297 13.1776 8.74279 15.3193C8.12261 17.461 8.26422 19.7515 9.14349 21.8005C10.0228 23.8495 11.5853 25.5302 13.5649 26.5563C15.5444 27.5824 17.8185 27.8904 19.9997 27.4278C22.1809 26.9651 24.1342 25.7605 25.5267 24.0191C26.9193 22.2778 27.665 20.1075 27.6368 17.878L30.3843 17.8432Z" fill="#414141"/>
<path d="M13.211 17.8348H30.0551V19.8165C30.0551 20.3637 29.6114 20.8073 29.0642 20.8073H13.211V17.8348Z" fill="#414141"/>
<path d="M13.211 34L13.211 17.8348L16 18.5C16.5472 18.5 16 19.2693 16 19.8165V34.5C16 34.5 15.075 34.6121 14.5 34.5C13.9701 34.3966 13.211 34 13.211 34Z" fill="#414141"/>
</g>
<rect x="0.5" y="0.5" width="35" height="35" rx="17.5" stroke="#414141"/>
<defs>
<filter id="filter0_i_10_126" x="5.61469" y="5.61462" width="24.7706" height="28.9352" filterUnits="userSpaceOnUse" color-interpolation-filters="sRGB">
<feFlood flood-opacity="0" result="BackgroundImageFix"/>
<feBlend mode="normal" in="SourceGraphic" in2="BackgroundImageFix" result="shape"/>
<feColorMatrix in="SourceAlpha" type="matrix" values="0 0 0 0 0 0 0 0 0 0 0 0 0 0 0 0 0 0 127 0" result="hardAlpha"/>
<feOffset dx="0.3" dy="0.3"/>
<feComposite in2="hardAlpha" operator="arithmetic" k2="-1" k3="1"/>
<feColorMatrix type="matrix" values="0 0 0 0 1 0 0 0 0 1 0 0 0 0 1 0 0 0 0.5 0"/>
<feBlend mode="normal" in2="shape" result="effect1_innerShadow_10_126"/>
</filter>
</defs>
</svg>
