<svg width="8" height="16" viewBox="0 0 8 16" fill="none" xmlns="http://www.w3.org/2000/svg">
<path d="M1.09848 0.923819L7.57598 7.56882C7.68975 7.68554 7.75342 7.84208 7.75342 8.00507C7.75342 8.16806 7.68975 8.3246 7.57598 8.44132L1.09848 15.0888C1.04548 15.1432 0.982122 15.1865 0.912133 15.2161C0.842144 15.2456 0.766947 15.2608 0.69098 15.2608C0.615013 15.2608 0.539814 15.2456 0.469825 15.2161C0.399836 15.1865 0.336474 15.1432 0.28348 15.0888C0.174452 14.9772 0.113413 14.8274 0.113413 14.6713C0.113413 14.5153 0.174452 14.3654 0.28348 14.2538L6.37473 8.00507L0.28348 1.75757C0.174826 1.646 0.114024 1.49643 0.114024 1.34069C0.114024 1.18496 0.174826 1.03538 0.28348 0.923819C0.336474 0.869389 0.399836 0.826128 0.469825 0.796589C0.539814 0.76705 0.615013 0.751831 0.69098 0.751831C0.766947 0.751831 0.842144 0.76705 0.912133 0.796589C0.982122 0.826128 1.04548 0.869389 1.09848 0.923819Z" fill="white"/>
</svg>
