<svg width="56" height="56" viewBox="0 0 56 56" fill="none" xmlns="http://www.w3.org/2000/svg">
<path d="M0 28C0 12.536 12.536 0 28 0C43.464 0 56 12.536 56 28C56 43.464 43.464 56 28 56C12.536 56 0 43.464 0 28Z" fill="#13161B" fill-opacity="0.26"/>
<path d="M24.5755 15.2515L36.235 27.2125C36.4398 27.4226 36.5544 27.7044 36.5544 27.9978C36.5544 28.2911 36.4398 28.5729 36.235 28.783L24.5755 40.7485C24.4801 40.8465 24.366 40.9243 24.2401 40.9775C24.1141 41.0307 23.9787 41.0581 23.842 41.0581C23.7053 41.0581 23.5699 41.0307 23.4439 40.9775C23.3179 40.9243 23.2039 40.8465 23.1085 40.7485C22.9122 40.5476 22.8024 40.2779 22.8024 39.997C22.8024 39.7161 22.9122 39.4464 23.1085 39.2455L34.0727 27.9978L23.1085 16.7523C22.9129 16.5514 22.8035 16.2822 22.8035 16.0019C22.8035 15.7216 22.9129 15.4523 23.1085 15.2515C23.2039 15.1535 23.3179 15.0757 23.4439 15.0225C23.5699 14.9693 23.7053 14.9419 23.842 14.9419C23.9787 14.9419 24.1141 14.9693 24.2401 15.0225C24.366 15.0757 24.4801 15.1535 24.5755 15.2515Z" fill="#FAFAFA" stroke="#FAFAFA"/>
</svg>
