<svg width="56" height="56" viewBox="0 0 56 56" fill="none" xmlns="http://www.w3.org/2000/svg">
<path d="M56 28C56 12.536 43.464 0 28 0C12.536 0 0 12.536 0 28C0 43.464 12.536 56 28 56C43.464 56 56 43.464 56 28Z" fill="#13161B" fill-opacity="0.26"/>
<path d="M31.4245 15.2515L19.765 27.2125C19.5602 27.4226 19.4456 27.7044 19.4456 27.9978C19.4456 28.2911 19.5602 28.5729 19.765 28.783L31.4245 40.7485C31.5199 40.8465 31.634 40.9243 31.7599 40.9775C31.8859 41.0307 32.0213 41.0581 32.158 41.0581C32.2947 41.0581 32.4301 41.0307 32.5561 40.9775C32.6821 40.9243 32.7961 40.8465 32.8915 40.7485C33.0878 40.5476 33.1976 40.2779 33.1976 39.997C33.1976 39.7161 33.0878 39.4464 32.8915 39.2455L21.9273 27.9978L32.8915 16.7523C33.0871 16.5514 33.1965 16.2822 33.1965 16.0019C33.1965 15.7216 33.0871 15.4523 32.8915 15.2515C32.7961 15.1535 32.6821 15.0757 32.5561 15.0225C32.4301 14.9693 32.2947 14.9419 32.158 14.9419C32.0213 14.9419 31.8859 14.9693 31.7599 15.0225C31.634 15.0757 31.5199 15.1535 31.4245 15.2515Z" fill="#FAFAFA" stroke="#FAFAFA"/>
</svg>
