<svg width="45" height="45" viewBox="0 0 45 45" fill="none" xmlns="http://www.w3.org/2000/svg">
<path d="M45 22.5C45 10.0736 34.9264 0 22.5 0C10.0736 0 0 10.0736 0 22.5C0 34.9264 10.0736 45 22.5 45C34.9264 45 45 34.9264 45 22.5Z" fill="url(#paint0_linear_149_428)"/>
<path d="M25.2585 12.2304L15.8662 21.8656C15.7012 22.0349 15.6089 22.2618 15.6089 22.4982C15.6089 22.7345 15.7012 22.9615 15.8662 23.1307L25.2585 32.7696C25.3354 32.8485 25.4273 32.9113 25.5287 32.9541C25.6302 32.9969 25.7393 33.019 25.8494 33.019C25.9596 33.019 26.0686 32.9969 26.1701 32.9541C26.2716 32.9113 26.3635 32.8485 26.4403 32.7696C26.5984 32.6078 26.6869 32.3905 26.6869 32.1642C26.6869 31.938 26.5984 31.7207 26.4403 31.5589L17.608 22.4982L26.4403 13.4393C26.5978 13.2775 26.686 13.0606 26.686 12.8348C26.686 12.609 26.5978 12.3921 26.4403 12.2304C26.3635 12.1514 26.2716 12.0887 26.1701 12.0459C26.0686 12.0031 25.9596 11.981 25.8494 11.981C25.7393 11.981 25.6302 12.0031 25.5287 12.0459C25.4273 12.0887 25.3354 12.1514 25.2585 12.2304Z" fill="white" stroke="white"/>
<defs>
<linearGradient id="paint0_linear_149_428" x1="5" y1="8" x2="39" y2="36.5" gradientUnits="userSpaceOnUse">
<stop stop-color="#EA97CC"/>
<stop offset="1" stop-color="#F7BBBB"/>
</linearGradient>
</defs>
</svg>
