<svg width="179" height="44" viewBox="0 0 179 44" fill="none" xmlns="http://www.w3.org/2000/svg">
<path d="M129.111 4.34885L122.031 0.0708488C121.935 0.0168488 121.83 -0.00715142 121.725 0.00184858C121.62 0.00984858 121.518 0.0488464 121.429 0.116846C121.34 0.184846 121.266 0.278849 121.215 0.389849C121.163 0.499849 121.135 0.624849 121.134 0.751849V9.30585C121.133 9.43585 121.16 9.56485 121.212 9.67885C121.265 9.79285 121.341 9.88884 121.432 9.95784C121.524 10.0258 121.63 10.0649 121.737 10.0699C121.845 10.0749 121.953 10.0468 122.049 9.98685L129.111 5.70885C129.216 5.64485 129.304 5.54784 129.365 5.42784C129.427 5.30684 129.459 5.16884 129.459 5.02684C129.459 4.88584 129.427 4.74685 129.365 4.62685C129.304 4.50585 129.216 4.40885 129.111 4.34485V4.34885Z" fill="#FF7B7B"/>
<path d="M116.742 4.77374L109.273 0.0777438C109.172 0.0187438 109.061 -0.00726019 108.95 0.0017398C108.839 0.0107398 108.732 0.0537387 108.638 0.128739C108.544 0.202739 108.466 0.305742 108.412 0.427742C108.358 0.548742 108.328 0.685737 108.327 0.825737V10.2147C108.326 10.3577 108.354 10.4997 108.41 10.6247C108.465 10.7507 108.545 10.8557 108.642 10.9307C108.739 11.0057 108.85 11.0487 108.963 11.0547C109.077 11.0597 109.191 11.0287 109.292 10.9627L116.742 6.26674C116.852 6.19674 116.945 6.08973 117.01 5.95773C117.075 5.82573 117.109 5.67375 117.109 5.51775C117.109 5.36275 117.075 5.21074 117.01 5.07874C116.945 4.94674 116.852 4.83975 116.742 4.76975V4.77374Z" fill="#FF7B7B"/>
<path d="M179 25.9581C179 26.6651 178.956 27.4021 178.868 28.1691H161.875C161.992 29.7021 162.475 30.8811 163.324 31.7071C164.202 32.5031 165.271 32.9001 166.529 32.9001C168.403 32.9001 169.706 32.1051 170.437 30.5131H178.429C178.019 32.1341 177.273 33.5931 176.19 34.8901C175.136 36.1881 173.804 37.2051 172.194 37.9421C170.584 38.6791 168.784 39.0471 166.793 39.0471C164.392 39.0471 162.256 38.5311 160.382 37.4991C158.509 36.4681 157.045 34.9941 155.991 33.0771C154.937 31.1611 154.41 28.9211 154.41 26.3561C154.41 23.7911 154.922 21.5501 155.947 19.6341C157.001 17.7181 158.465 16.2441 160.338 15.2121C162.212 14.1801 164.363 13.6641 166.793 13.6641C169.164 13.6641 171.272 14.1651 173.116 15.1681C174.96 16.1701 176.395 17.6001 177.419 19.4571C178.473 21.3151 179 23.4811 179 25.9581ZM171.316 23.9681C171.316 22.6711 170.877 21.6391 169.998 20.8721C169.12 20.1061 168.022 19.7231 166.705 19.7231C165.446 19.7231 164.378 20.0911 163.5 20.8281C162.651 21.5651 162.124 22.6121 161.919 23.9681H171.316Z" fill="#414141"/>
<path d="M141.145 32.4556H151.771V38.6906H132.758V32.6766L142.945 20.2506H132.846V14.0156H151.552V20.0296L141.145 32.4556Z" fill="#414141"/>
<path d="M128.678 14.0156V38.6906H121.169V14.0156H128.678Z" fill="#414141"/>
<path d="M115.728 14.0156V38.6906H108.219V14.0156H115.728Z" fill="#414141"/>
<path d="M102.778 5.96875V38.6917H95.269V5.96875H102.778Z" fill="#414141"/>
<path d="M63.974 26.3121C63.974 23.7761 64.442 21.5501 65.379 19.6341C66.345 17.7181 67.647 16.2441 69.287 15.2121C70.926 14.1801 72.756 13.6641 74.776 13.6641C76.503 13.6641 78.01 14.0181 79.298 14.7261C80.616 15.4331 81.626 16.3621 82.328 17.5121V14.0181H89.837V38.6931H82.328V35.2001C81.596 36.3501 80.572 37.2781 79.254 37.9861C77.966 38.6931 76.459 39.0471 74.732 39.0471C72.741 39.0471 70.926 38.5311 69.287 37.4991C67.647 36.4381 66.345 34.9491 65.379 33.0331C64.442 31.0871 63.974 28.8471 63.974 26.3121ZM82.328 26.3561C82.328 24.4691 81.801 22.9801 80.747 21.8891C79.723 20.7991 78.464 20.2531 76.971 20.2531C75.478 20.2531 74.205 20.7991 73.151 21.8891C72.126 22.9511 71.614 24.4251 71.614 26.3121C71.614 28.1981 72.126 29.7021 73.151 30.8221C74.205 31.9131 75.478 32.4581 76.971 32.4581C78.464 32.4581 79.723 31.9131 80.747 30.8221C81.801 29.7311 82.328 28.2431 82.328 26.3561Z" fill="#414141"/>
<path d="M60.073 14.0156V38.6906H52.565V35.3306C51.803 36.4206 50.764 37.3056 49.447 37.9836C48.159 38.6326 46.724 38.9566 45.144 38.9566C43.27 38.9566 41.616 38.5436 40.182 37.7186C38.747 36.8636 37.635 35.6396 36.845 34.0476C36.054 32.4556 35.659 30.5836 35.659 28.4316V14.0156H43.124V27.4146C43.124 29.0656 43.548 30.3476 44.397 31.2616C45.246 32.1756 46.388 32.6326 47.822 32.6326C49.286 32.6326 50.442 32.1756 51.291 31.2616C52.14 30.3476 52.565 29.0656 52.565 27.4146V14.0156H60.073Z" fill="#414141"/>
<path d="M23.229 44.0029L19.277 38.6519C18.106 38.8879 16.964 39.006 15.852 39.006C12.954 39.006 10.29 38.3279 7.85999 36.9719C5.45999 35.6159 3.54197 33.729 2.10797 31.312C0.702971 28.865 0 26.1229 0 23.0859C0 20.0499 0.702971 17.3229 2.10797 14.9059C3.54197 12.4879 5.45999 10.6009 7.85999 9.24495C10.29 7.88895 12.954 7.21094 15.852 7.21094C18.75 7.21094 21.399 7.88895 23.799 9.24495C26.229 10.6009 28.132 12.4879 29.508 14.9059C30.913 17.3229 31.615 20.0499 31.615 23.0859C31.615 25.7399 31.074 28.1719 29.991 30.3829C28.937 32.5639 27.459 34.3779 25.556 35.8219L26.527 36.9969C28.834 39.7879 26.849 44.0029 23.229 44.0029ZM7.68402 23.0859C7.68402 25.8279 8.416 28.0239 9.88 29.6749C11.373 31.2969 13.363 32.1079 15.852 32.1079C18.311 32.1079 20.272 31.282 21.736 29.631C23.229 27.98 23.975 25.7989 23.975 23.0859C23.975 20.3449 23.229 18.1629 21.736 16.5419C20.272 14.8909 18.311 14.0649 15.852 14.0649C13.363 14.0649 11.373 14.8759 9.88 16.4969C8.416 18.1189 7.68402 20.3149 7.68402 23.0859Z" fill="#414141"/>
</svg>
